<svg xmlns="http://www.w3.org/2000/svg" xmlns:xlink="http://www.w3.org/1999/xlink" width="499.726" height="114"><defs><linearGradient id="c"><stop offset="0" stop-color="#0029a5"/><stop offset="1" stop-color="#006be6"/></linearGradient><linearGradient id="b"><stop offset="0" stop-color="#003db9"/><stop offset="1" stop-color="#fff"/></linearGradient><linearGradient id="a"><stop offset="0" stop-color="#c40000"/><stop offset="1" stop-color="#fff"/></linearGradient><linearGradient x1="479.802" y1="145.962" x2="479.802" y2="-.01" id="d" xlink:href="#c" gradientUnits="userSpaceOnUse" gradientTransform="scale(.78082)"/></defs><path fill="url(#d)" d="M0 0h374.795v114H0z"/><path fill="#c50000" d="M383.384 0h116.342v114H383.384z"/><path d="M455.273 38.097L433.79 48.814v52.564h21.484V38.097zM455.273 10.24l-42.968 21.411v23.975l42.968-21.411V10.24zM316.748 27.232c-10.813 0-19.727 7.766-19.727 18.58 0 7.434 4.205 13.974 10.352 17.334l-11.23 24.023h14.33l9.498-21.63h5.37v21.63h12.891V27.232h-21.484zm0 11.06h8.594v15.503h-8.594c-3.846 0-6.836-3.401-6.836-7.764 0-4.362 2.99-7.739 6.836-7.739zM276.758 27.232L254.98 62.193v-34.96h-12.89v59.936h11.181l21.558-34.62v34.62h12.89V27.232zM57.784 38.289H49.19v15.506h8.594c3.846 0 6.836-3.39 6.836-7.753 0-4.363-2.99-7.753-6.836-7.753zm0-11.057c10.813 0 19.726 7.768 19.726 18.58 0 10.814-8.913 19.727-19.726 19.727H49.19v21.63H36.3V27.232zM118.994 57.237c0-3.68-.397-6.974-.488-9.558-.21-5.955-4.771-10.754-10.67-10.754-5.897 0-10.487 4.799-10.692 10.754-.09 2.584-.489 5.879-.489 9.558 0 3.68.398 6.999.489 9.583.209 5.955 4.795 10.754 10.693 10.754s10.46-4.799 10.669-10.754c.09-2.584.488-5.903.488-9.583zm-11.181 31.665c-13.289 0-24.048-10.784-24.048-24.072V49.645c0-13.289 10.76-24.048 24.047-24.048 13.289 0 24.073 10.76 24.073 24.048V64.83c0 13.288-10.784 24.072-24.072 24.072zM164.722 25.597c-13.289 0-24.15 8.717-24.048 24.048.034 5.061 0 15.185 0 15.185 0 15.739 10.76 24.072 24.048 24.072 5.682 0 12.21-1.086 17.749-3.344l-2.832-11.182c-5.344 2-11.747 3.198-14.893 3.198-5.898 0-10.484-4.787-10.693-10.742-.091-2.584-.489-5.915-.489-9.595 0-3.68.4-6.961.489-9.546.205-5.955 4.795-10.766 10.693-10.766 3.385 0 10.026.993 15.112 2.954l2.735-10.767c-5.136-2.488-11.573-3.515-17.871-3.515zM214.827 25.597c-13.288 0-24.15 8.717-24.048 24.048.034 5.061 0 15.185 0 15.185 0 15.739 10.76 24.072 24.048 24.072 5.682 0 12.21-1.086 17.749-3.344l-2.832-11.182c-5.344 2-11.746 3.198-14.893 3.198-5.898 0-10.484-4.787-10.693-10.742-.09-2.584-.488-5.915-.488-9.595 0-3.68.399-6.961.488-9.546.206-5.955 4.795-10.766 10.693-10.766 3.385 0 10.026.993 15.113 2.954l2.734-10.767c-5.136-2.488-11.573-3.515-17.871-3.515z" fill="#fff"/></svg>