<svg xmlns="http://www.w3.org/2000/svg" width="300" height="120"><defs><linearGradient id="e"><stop offset="0" stop-color="#012ba8"/><stop offset="1" stop-color="#0068e3"/></linearGradient><linearGradient id="b"><stop offset="0" stop-color="#003db9"/><stop offset="1" stop-color="#fff"/></linearGradient><linearGradient id="a"><stop offset="0" stop-color="#c40000"/><stop offset="1" stop-color="#fff"/></linearGradient><linearGradient id="d"><stop offset="0" stop-color="#c40000"/><stop offset="1" stop-color="#fff"/></linearGradient><linearGradient id="c"><stop offset="0" stop-color="#003db9"/><stop offset="1" stop-color="#fff"/></linearGradient></defs><path d="M59.745 5.538C29.66 5.538 5 30.198 5 60.283 5 90.368 29.66 115 59.745 115c16.597 0 31.597-7.453 41.623-19.2a11.925 11.925 0 1 0-18.115-15.49c-5.677 6.65-14.02 10.84-23.508 10.84-17.197 0-30.895-13.67-30.895-30.867 0-17.197 13.698-30.896 30.895-30.896 9.107 0 17.134 3.876 22.794 10.07a11.925 11.925 0 1 0 17.602-16.09C90.147 12.43 75.676 5.538 59.745 5.538zm60.426-.203a11.13 11.13 0 1 0 0 22.258h20.767v74.348a12.322 12.322 0 1 0 24.642 0V27.593h20.767a11.13 11.13 0 1 0 0-22.258h-66.176zm130.116-.149c-30.085 0-54.724 24.64-54.724 54.725s24.64 54.724 54.724 54.724c16.596 0 31.607-7.456 41.634-19.202a11.925 11.925 0 1 0-18.134-15.476c-5.677 6.65-14.013 10.83-23.5 10.83-17.197 0-30.877-13.679-30.877-30.876 0-17.197 13.68-30.877 30.877-30.877 9.106 0 17.144 3.866 22.804 10.06a11.93 11.93 0 1 0 17.612-16.097c-9.994-10.938-24.485-17.81-40.416-17.81z" style="text-indent:0;text-align:start;line-height:normal;text-transform:none;block-progression:tb;-inkscape-font-specification:Sans" font-weight="400" color="#000" fill="#ffcb08" overflow="visible" font-family="Sans"/></svg>