<?xml version="1.0" encoding="UTF-8" standalone="no"?>
<!-- Created with Inkscape (http://www.inkscape.org/) -->

<svg
   xmlns:dc="http://purl.org/dc/elements/1.1/"
   xmlns:cc="http://creativecommons.org/ns#"
   xmlns:rdf="http://www.w3.org/1999/02/22-rdf-syntax-ns#"
   xmlns:svg="http://www.w3.org/2000/svg"
   xmlns="http://www.w3.org/2000/svg"
   xmlns:xlink="http://www.w3.org/1999/xlink"
   version="1.1"
   width="499.72604"
   height="114"
   id="svg2">
  <desc
     id="desc4">Created with graphing.ru and Raphael</desc>
  <metadata
     id="metadata12">
    <rdf:RDF>
      <cc:Work
         rdf:about="">
        <dc:format>image/svg+xml</dc:format>
        <dc:type
           rdf:resource="http://purl.org/dc/dcmitype/StillImage" />
        <dc:title></dc:title>
      </cc:Work>
    </rdf:RDF>
  </metadata>
  <defs
     id="defs6">
    <linearGradient
       id="linearGradient3791">
      <stop
         id="stop3793"
         style="stop-color:#0029a5;stop-opacity:1"
         offset="0" />
      <stop
         id="stop3795"
         style="stop-color:#006be6;stop-opacity:1"
         offset="1" />
    </linearGradient>
    <linearGradient
       id="linearGradient3775">
      <stop
         id="stop3777"
         style="stop-color:#003db9;stop-opacity:1"
         offset="0" />
      <stop
         id="stop3779"
         style="stop-color:#ffffff;stop-opacity:1"
         offset="1" />
    </linearGradient>
    <linearGradient
       id="linearGradient3763">
      <stop
         id="stop3765"
         style="stop-color:#c40000;stop-opacity:1"
         offset="0" />
      <stop
         id="stop3767"
         style="stop-color:#ffffff;stop-opacity:1"
         offset="1" />
    </linearGradient>
    <linearGradient
       x1="609.99133"
       y1="8.8892984"
       x2="609.99133"
       y2="86.089096"
       id="linearGradient3769"
       xlink:href="#linearGradient3763"
       gradientUnits="userSpaceOnUse"
       gradientTransform="translate(-60,0)" />
    <linearGradient
       x1="609.99133"
       y1="8.8892984"
       x2="609.99133"
       y2="86.089096"
       id="linearGradient3773"
       xlink:href="#linearGradient3775"
       gradientUnits="userSpaceOnUse"
       gradientTransform="matrix(3.2214765,0,0,1,-1775.0336,0)" />
    <linearGradient
       x1="479.80173"
       y1="145.96159"
       x2="479.80173"
       y2="-0.010201285"
       id="linearGradient3797"
       xlink:href="#linearGradient3791"
       gradientUnits="userSpaceOnUse"
       gradientTransform="scale(0.78082192,0.78082192)" />
  </defs>
  <rect
     width="374.79453"
     height="114"
     x="0"
     y="0"
     id="rect2989"
     style="fill:url(#linearGradient3797);fill-opacity:1;stroke:none" />
  <rect
     width="116.34247"
     height="114"
     x="383.38358"
     y="0"
     id="rect2991"
     style="fill:#c50000;fill-opacity:1;stroke:none" />
  <path
     d="m 455.27344,38.09668 c -7.16146,3.572591 -14.32292,7.145182 -21.48438,10.717773 0,17.521159 0,35.042317 0,52.563477 7.16146,0 14.32292,0 21.48438,0 0,-21.09375 0,-42.1875 0,-63.28125 z"
     id="rect3787"
     style="fill:#ffffff;fill-opacity:1;stroke:none" />
  <path
     d="m 455.27344,10.240234 c -14.32292,7.137045 -28.64584,14.274089 -42.96875,21.411133 0,7.991537 0,15.983073 0,23.97461 14.32291,-7.137045 28.64583,-14.274089 42.96875,-21.411133 0,-7.991537 0,-15.983073 0,-23.97461 z"
     id="rect3789"
     style="fill:#ffffff;fill-opacity:1;stroke:none" />
  <path
     d="m 316.74805,27.232422 c -10.81307,0 -19.72657,7.766027 -19.72657,18.579101 0,7.433987 4.20471,13.974873 10.35157,17.333985 l -11.23047,24.023442 14.33105,0 9.49707,-21.630864 5.3711,0 0,21.630864 12.89062,0 0,-59.936528 -21.48437,0 z m 0,11.05957 8.59375,0 0,15.50293 -8.59375,0 c -3.84646,0 -6.83594,-3.401176 -6.83594,-7.763672 0,-4.362498 2.98948,-7.739258 6.83594,-7.739258 z"
     id="path3914"
     style="fill:#ffffff;fill-opacity:1;stroke:none" />
  <path
     d="m 276.75781,27.232422 -21.77734,34.960937 0,-34.960937 -12.89063,0 0,59.936528 11.18164,0 21.55762,-34.619145 0,34.619145 12.89063,0 0,-59.936528 z"
     id="rect3804"
     style="fill:#ffffff;fill-opacity:1;stroke:none" />
  <path
     d="m 57.783773,38.288839 -8.59375,0 0,15.506083 8.59375,0 c 3.846461,0 6.835937,-3.390545 6.835937,-7.753042 0,-4.362498 -2.989476,-7.753041 -6.835937,-7.753041 z m 0,-11.056417 c 10.81307,0 19.726562,7.767108 19.726562,18.580183 0,10.813071 -8.913492,19.726563 -19.726562,19.726563 l -8.59375,0 0,21.629782 -12.890625,0 0,-59.936528 z"
     id="path3845"
     style="fill:#ffffff;fill-opacity:1;stroke:none" />
  <path
     d="m 118.99414,57.237305 c 0,-3.679675 -0.39749,-6.973996 -0.48828,-9.558106 -0.20923,-5.955373 -4.77093,-10.754394 -10.66895,-10.754394 -5.89801,0 -10.487808,4.798893 -10.693355,10.754394 -0.08919,2.584181 -0.488282,5.878431 -0.488282,9.558106 0,3.679675 0.397493,6.998409 0.488282,9.582519 0.209234,5.955376 4.795345,10.754396 10.693355,10.754396 5.89802,0 10.45972,-4.79902 10.66895,-10.754396 0.0908,-2.58411 0.48828,-5.902844 0.48828,-9.582519 z M 107.8125,88.90234 c -13.288297,0 -24.047852,-10.78396 -24.047852,-24.072262 l 0,-15.185547 c 0,-13.288297 10.759555,-24.047851 24.047852,-24.047851 13.2883,0 24.07227,10.759554 24.07227,24.047851 l 0,15.185547 c 0,13.288302 -10.78397,24.072262 -24.07227,24.072262 z"
     id="path3865"
     style="fill:#ffffff;fill-opacity:1;stroke:none" />
  <path
     d="m 164.72168,25.59668 c -13.2883,0 -24.14995,8.71761 -24.04785,24.047851 0.0337,5.061737 0,15.185547 0,15.185547 0,15.738632 10.75955,24.072262 24.04785,24.072262 5.68189,0 12.2098,-1.08613 17.74902,-3.34472 l -2.83203,-11.18164 c -5.34414,1.99991 -11.7464,3.19824 -14.89258,3.19824 -5.89801,0 -10.48412,-4.78682 -10.69336,-10.742189 -0.0908,-2.58411 -0.48828,-5.915051 -0.48828,-9.594726 0,-3.679675 0.3991,-6.961718 0.48828,-9.545899 0.20555,-5.955501 4.79535,-10.766601 10.69336,-10.766601 3.38484,0 10.02551,0.993375 15.11231,2.954101 l 2.73437,-10.766601 C 177.45711,26.624218 171.01981,25.59668 164.72168,25.59668 z"
     id="path3888"
     style="fill:#ffffff;fill-opacity:1;stroke:none" />
  <path
     d="m 214.82694,25.59668 c -13.2883,0 -24.14995,8.717611 -24.04785,24.047852 0.0337,5.061737 0,15.185546 0,15.185546 0,15.738632 10.75955,24.072262 24.04785,24.072262 5.68189,0 12.2098,-1.08613 17.74902,-3.34472 l -2.83203,-11.18164 c -5.34414,1.99991 -11.74641,3.19824 -14.89258,3.19824 -5.89801,0 -10.48412,-4.78682 -10.69336,-10.742189 -0.0908,-2.584109 -0.48828,-5.915051 -0.48828,-9.594726 0,-3.679675 0.39909,-6.961718 0.48828,-9.545899 0.20555,-5.955501 4.79535,-10.766601 10.69336,-10.766601 3.38484,0 10.02551,0.993375 15.11231,2.954101 l 2.73437,-10.766601 C 227.56237,26.624218 221.12507,25.59668 214.82694,25.59668 z"
     id="path3890"
     style="fill:#ffffff;fill-opacity:1;stroke:none" />
</svg>
